<?xml version="1.0" encoding="UTF-8"?><svg id="a" xmlns="http://www.w3.org/2000/svg" viewBox="0 0 32 32"><path d="M16,2c-7.73,0-14,6.27-14,14s6.27,14,14,14,14-6.27,14-14S23.73,2,16,2Zm1.5,24.34h-2.37c-.57,0-1.03-.46-1.03-1.03v-2.21c0-.57,.46-1.03,1.03-1.03h2.37c.57,0,1.03,.46,1.03,1.03v2.21c0,.57-.46,1.03-1.03,1.03Zm1.12-16.14l-1.09,9.2c-.06,.52-.5,.91-1.02,.91h-.37c-.52,0-.96-.39-1.02-.91l-1.11-9.2s0-.08,0-.12V5.64c0-.57,.46-1.03,1.03-1.03h2.57c.57,0,1.03,.46,1.03,1.03v4.44s0,.08,0,.12Z"/></svg>