<?xml version="1.0" encoding="UTF-8"?><svg id="a" xmlns="http://www.w3.org/2000/svg" viewBox="0 0 32 32"><path d="M27.65,17.46c.06-.48,.1-.97,.1-1.46,0-.57-.04-1.13-.12-1.68l-3.18-.38c-.22-.93-.59-1.8-1.1-2.59l1.97-2.51c-.64-.84-1.38-1.58-2.22-2.21l-2.52,1.98c-.8-.5-1.7-.88-2.65-1.1l-.37-3.16c-.51-.07-1.03-.1-1.56-.1s-1.04,.03-1.56,.1l-.37,3.16c-.98,.23-1.91,.61-2.73,1.15l-2.5-1.98c-.83,.63-1.56,1.37-2.18,2.19l1.98,2.51c-.54,.84-.93,1.79-1.14,2.81l-3.14,.37c-.07,.47-.1,.95-.1,1.44,0,.56,.04,1.11,.12,1.65l3.17,.38c.23,1,.64,1.93,1.2,2.76l-1.96,2.49c.64,.82,1.39,1.54,2.23,2.17l2.52-1.98c.84,.5,1.77,.87,2.76,1.07l.37,3.13c.44,.05,.89,.08,1.34,.08,.61,0,1.2-.04,1.78-.14l.37-3.18c.95-.24,1.84-.64,2.63-1.17l2.49,1.96c.83-.65,1.56-1.41,2.18-2.25l-1.99-2.52c.49-.8,.84-1.68,1.04-2.63l3.14-.37Zm-11.65,4.41c-3.24,0-5.87-2.63-5.87-5.87s2.63-5.87,5.87-5.87,5.87,2.63,5.87,5.87-2.63,5.87-5.87,5.87Z"/></svg>