<?xml version="1.0" encoding="UTF-8"?><svg id="a" xmlns="http://www.w3.org/2000/svg" viewBox="0 0 32 32"><path d="M26.98,17.54c.39-.05,.71-.36,.74-.75,.02-.26,.03-.52,.03-.79,0-.34-.02-.68-.05-1.02-.03-.39-.35-.7-.74-.74l-2.51-.3c-.22-.93-.59-1.8-1.1-2.59l1.55-1.98c.24-.31,.25-.76,0-1.05-.39-.45-.82-.88-1.27-1.27-.3-.26-.74-.25-1.05,0l-1.99,1.56c-.8-.5-1.7-.88-2.65-1.1l-.29-2.49c-.05-.39-.36-.71-.75-.74-.29-.02-.59-.03-.89-.03s-.6,.01-.89,.03c-.39,.03-.7,.35-.75,.74l-.29,2.49c-.98,.23-1.91,.61-2.73,1.15l-1.97-1.56c-.31-.24-.76-.25-1.06,0-.44,.38-.86,.8-1.24,1.24-.26,.3-.25,.74,0,1.05l1.56,1.98c-.54,.84-.93,1.79-1.14,2.81l-2.47,.29c-.39,.05-.71,.36-.74,.75-.02,.25-.02,.51-.02,.77,0,.33,.02,.66,.04,.99,.03,.39,.35,.69,.74,.74l2.51,.3c.23,1,.64,1.93,1.2,2.76l-1.53,1.95c-.25,.31-.25,.77,.02,1.06,.39,.44,.81,.85,1.27,1.23,.3,.25,.74,.24,1.05,0l2-1.57c.84,.5,1.77,.87,2.76,1.07l.29,2.45c.05,.41,.39,.72,.81,.75,.2,.01,.41,.02,.61,.02,.37,0,.73-.02,1.09-.05,.4-.04,.72-.34,.77-.74l.3-2.52c.95-.24,1.84-.64,2.63-1.17l1.95,1.53c.31,.25,.77,.25,1.07-.02,.45-.4,.86-.83,1.25-1.29,.25-.3,.24-.74,0-1.05l-1.58-1.99c.49-.8,.84-1.68,1.04-2.63l2.47-.29Zm-10.04,2.47c-3,.67-5.62-1.95-4.95-4.95,.34-1.51,1.56-2.73,3.07-3.07,3-.67,5.62,1.95,4.95,4.95-.34,1.51-1.56,2.73-3.07,3.07Z"/></svg>