<?xml version="1.0" encoding="UTF-8"?><svg id="a" xmlns="http://www.w3.org/2000/svg" viewBox="0 0 32 32"><path d="M16,10.69c-.42-9.25-13.54-6.12-11.23,1.53,.27,.88,.74,1.67,1.3,2.38,2.26,2.85,9.93,12.4,9.93,12.4l9.94-12.43c.56-.69,1.02-1.48,1.29-2.35,2.31-7.65-10.82-10.78-11.23-1.53Zm9.31,.95c-.16,.55-.48,1.12-.93,1.69l-8.38,10.47c-2.37-2.94-6.75-8.4-8.37-10.44-.46-.58-.77-1.16-.94-1.72-.35-1.15-.21-2.15,.41-2.99,.74-1,2.11-1.65,3.49-1.65,1.21,0,3.41-.02,4.12,3.71,.2,1.05,.58,1.58,1.29,1.98,.74-.43,1.04-.86,1.31-1.89,1.06-4.13,2.89-3.8,4.1-3.8,1.38,0,2.75,.65,3.5,1.65,.61,.83,.75,1.84,.4,2.99Z"/></svg>