<?xml version="1.0" encoding="UTF-8"?><svg id="a" xmlns="http://www.w3.org/2000/svg" viewBox="0 0 32 32"><path d="M27.44,9.59s.01-.03,0-.04c-.68-5.83-11.09-7.38-11.46,.83-.38-8.36-11.12-6.6-11.47-.54-.26,1.44,.14,3.08,1.56,4.76,2.26,2.85,9.93,12.4,9.93,12.4l9.94-12.43c1.49-1.76,1.85-3.49,1.5-4.98ZM10.59,7c3.41,0,3.41,2,5.41,7,1-2.5,1.5-4.25,2.18-5.38,.67-1.12,1.52-1.62,3.23-1.62,2.51,0,4.79,2.02,3.9,4.64,0,1.05-8.64,11.12-9.31,12.16-2.93-3.98-7.59-8.7-9.31-12.16-.89-2.6,1.39-4.64,3.9-4.64Z"/></svg>