<?xml version="1.0" encoding="UTF-8"?><svg id="a" xmlns="http://www.w3.org/2000/svg" viewBox="0 0 32 32"><path d="M26.19,5.8H5.81c-1.55,0-2.81,1.26-2.81,2.81v14.78c0,1.55,1.26,2.81,2.81,2.81H26.19c1.55,0,2.81-1.26,2.81-2.81V8.61c0-1.55-1.26-2.81-2.81-2.81ZM5,8.61c0-.45,.36-.81,.81-.81H26.19c.45,0,.81,.36,.81,.81v9.79l-4.27-3.16c-1.03-.77-2.45-.74-3.46,.06l-5.05,4c-.21,.16-.49,.19-.72,.07l-2.94-1.5c-1-.51-2.21-.44-3.14,.17l-2.42,1.58V8.61Zm22,14.78c0,.45-.36,.81-.81,.81H5.81c-.45,0-.81-.36-.81-.81v-1.37l3.51-2.3c.34-.23,.78-.25,1.14-.07l2.94,1.5c.92,.48,2.05,.37,2.87-.28l5.05-4.01c.3-.23,.73-.24,1.03-.01l5.46,4.03v2.51Z"/><circle cx="12" cy="12.2" r="2"/></svg>