<?xml version="1.0" encoding="UTF-8"?><svg id="a" xmlns="http://www.w3.org/2000/svg" viewBox="0 0 32 32"><path d="M15.95,12.98c-1.67,0-3.04,1.37-3.04,3.05s1.37,3.04,3.04,3.04,3.05-1.36,3.05-3.04-1.37-3.05-3.05-3.05Z"/><path d="M15.95,12.98c-1.67,0-3.04,1.37-3.04,3.05s1.37,3.04,3.04,3.04,3.05-1.36,3.05-3.04-1.37-3.05-3.05-3.05Z"/><path d="M15.95,12.98c-1.67,0-3.04,1.37-3.04,3.05s1.37,3.04,3.04,3.04,3.05-1.36,3.05-3.04-1.37-3.05-3.05-3.05Z"/><path d="M15.95,12.98c-1.67,0-3.04,1.37-3.04,3.05s1.37,3.04,3.04,3.04,3.05-1.36,3.05-3.04-1.37-3.05-3.05-3.05Z"/><path d="M15.95,12.98c-1.67,0-3.04,1.37-3.04,3.05s1.37,3.04,3.04,3.04,3.05-1.36,3.05-3.04-1.37-3.05-3.05-3.05Z"/><path d="M15.95,12.98c-1.67,0-3.04,1.37-3.04,3.05s1.37,3.04,3.04,3.04,3.05-1.36,3.05-3.04-1.37-3.05-3.05-3.05Z"/><path d="M15.95,12.98c-1.67,0-3.04,1.37-3.04,3.05s1.37,3.04,3.04,3.04,3.05-1.36,3.05-3.04-1.37-3.05-3.05-3.05Z"/><path d="M15.95,12.98c-1.67,0-3.04,1.37-3.04,3.05s1.37,3.04,3.04,3.04,3.05-1.36,3.05-3.04-1.37-3.05-3.05-3.05Z"/><path d="M15.95,12.98c-1.67,0-3.04,1.37-3.04,3.05s1.37,3.04,3.04,3.04,3.05-1.36,3.05-3.04-1.37-3.05-3.05-3.05Z"/><path d="M15.95,12.98c-1.67,0-3.04,1.37-3.04,3.05s1.37,3.04,3.04,3.04,3.05-1.36,3.05-3.04-1.37-3.05-3.05-3.05Z"/><path d="M15.95,12.98c-1.67,0-3.04,1.37-3.04,3.05s1.37,3.04,3.04,3.04,3.05-1.36,3.05-3.04-1.37-3.05-3.05-3.05Z"/><path d="M15.95,12.98c-1.67,0-3.04,1.37-3.04,3.05s1.37,3.04,3.04,3.04,3.05-1.36,3.05-3.04-1.37-3.05-3.05-3.05Z"/><path d="M15.95,12.98c-1.67,0-3.04,1.37-3.04,3.05s1.37,3.04,3.04,3.04,3.05-1.36,3.05-3.04-1.37-3.05-3.05-3.05Z"/><path d="M15.95,12.98c-1.67,0-3.04,1.37-3.04,3.05s1.37,3.04,3.04,3.04,3.05-1.36,3.05-3.04-1.37-3.05-3.05-3.05Z"/><path d="M15.95,12.98c-1.67,0-3.04,1.37-3.04,3.05s1.37,3.04,3.04,3.04,3.05-1.36,3.05-3.04-1.37-3.05-3.05-3.05Z"/><path d="M15.95,12.98c-1.67,0-3.04,1.37-3.04,3.05s1.37,3.04,3.04,3.04,3.05-1.36,3.05-3.04-1.37-3.05-3.05-3.05Z"/><path d="M15.95,12.98c-1.67,0-3.04,1.37-3.04,3.05s1.37,3.04,3.04,3.04,3.05-1.36,3.05-3.04-1.37-3.05-3.05-3.05Z"/><path d="M15.95,12.98c-1.67,0-3.04,1.37-3.04,3.05s1.37,3.04,3.04,3.04,3.05-1.36,3.05-3.04-1.37-3.05-3.05-3.05Z"/><path d="M15.95,12.98c-1.67,0-3.04,1.37-3.04,3.05s1.37,3.04,3.04,3.04,3.05-1.36,3.05-3.04-1.37-3.05-3.05-3.05Z"/><path d="M15.95,12.98c-1.67,0-3.04,1.37-3.04,3.05s1.37,3.04,3.04,3.04,3.05-1.36,3.05-3.04-1.37-3.05-3.05-3.05Z"/><path d="M15.95,12.98c-1.67,0-3.04,1.37-3.04,3.05s1.37,3.04,3.04,3.04,3.05-1.36,3.05-3.04-1.37-3.05-3.05-3.05Z"/><path d="M15.95,12.98c-1.67,0-3.04,1.37-3.04,3.05s1.37,3.04,3.04,3.04,3.05-1.36,3.05-3.04-1.37-3.05-3.05-3.05Z"/><path d="M15.95,12.98c-1.67,0-3.04,1.37-3.04,3.05s1.37,3.04,3.04,3.04,3.05-1.36,3.05-3.04-1.37-3.05-3.05-3.05Z"/><path d="M15.95,12.98c-1.67,0-3.04,1.37-3.04,3.05s1.37,3.04,3.04,3.04,3.05-1.36,3.05-3.04-1.37-3.05-3.05-3.05Z"/><path d="M15.95,12.98c-1.67,0-3.04,1.37-3.04,3.05s1.37,3.04,3.04,3.04,3.05-1.36,3.05-3.04-1.37-3.05-3.05-3.05Z"/><path d="M15.95,12.98c-1.67,0-3.04,1.37-3.04,3.05s1.37,3.04,3.04,3.04,3.05-1.36,3.05-3.04-1.37-3.05-3.05-3.05Z"/><path d="M15.95,12.98c-1.67,0-3.04,1.37-3.04,3.05s1.37,3.04,3.04,3.04,3.05-1.36,3.05-3.04-1.37-3.05-3.05-3.05Z"/><path d="M15.95,12.98c-1.67,0-3.04,1.37-3.04,3.05s1.37,3.04,3.04,3.04,3.05-1.36,3.05-3.04-1.37-3.05-3.05-3.05Z"/><path d="M15.95,12.98c-1.67,0-3.04,1.37-3.04,3.05s1.37,3.04,3.04,3.04,3.05-1.36,3.05-3.04-1.37-3.05-3.05-3.05Z"/><path d="M15.95,12.98c-1.67,0-3.04,1.37-3.04,3.05s1.37,3.04,3.04,3.04,3.05-1.36,3.05-3.04-1.37-3.05-3.05-3.05Z"/><path d="M15.95,12.98c-1.67,0-3.04,1.37-3.04,3.05s1.37,3.04,3.04,3.04,3.05-1.36,3.05-3.04-1.37-3.05-3.05-3.05Z"/><path d="M15.95,12.98c-1.67,0-3.04,1.37-3.04,3.05s1.37,3.04,3.04,3.04,3.05-1.36,3.05-3.04-1.37-3.05-3.05-3.05Z"/><path d="M15.95,12.98c-1.67,0-3.04,1.37-3.04,3.05s1.37,3.04,3.04,3.04,3.05-1.36,3.05-3.04-1.37-3.05-3.05-3.05Z"/><path d="M15.95,12.98c-1.67,0-3.04,1.37-3.04,3.05s1.37,3.04,3.04,3.04,3.05-1.36,3.05-3.04-1.37-3.05-3.05-3.05Z"/><path d="M22.09,4H9.91c-3.26,0-5.91,2.65-5.91,5.91v12.18c0,3.26,2.65,5.91,5.91,5.91h12.18c3.26,0,5.91-2.65,5.91-5.91V9.91c0-3.26-2.65-5.91-5.91-5.91Zm2.74,15.77c0,2.82-2.27,5.1-5.08,5.1h-7.49c-2.82,0-5.09-2.28-5.09-5.1v-7.54c0-2.82,2.27-5.1,5.09-5.1h7.49c2.81,0,5.08,2.28,5.08,5.1v7.54Z"/><path d="M15.95,12.98c-1.67,0-3.04,1.37-3.04,3.05s1.37,3.04,3.04,3.04,3.05-1.36,3.05-3.04-1.37-3.05-3.05-3.05Z"/><path d="M15.95,12.98c-1.67,0-3.04,1.37-3.04,3.05s1.37,3.04,3.04,3.04,3.05-1.36,3.05-3.04-1.37-3.05-3.05-3.05Z"/><path d="M15.95,12.98c-1.67,0-3.04,1.37-3.04,3.05s1.37,3.04,3.04,3.04,3.05-1.36,3.05-3.04-1.37-3.05-3.05-3.05Z"/><path d="M15.95,12.98c-1.67,0-3.04,1.37-3.04,3.05s1.37,3.04,3.04,3.04,3.05-1.36,3.05-3.04-1.37-3.05-3.05-3.05Z"/><path d="M15.95,12.98c-1.67,0-3.04,1.37-3.04,3.05s1.37,3.04,3.04,3.04,3.05-1.36,3.05-3.04-1.37-3.05-3.05-3.05Z"/><path d="M15.95,12.98c-1.67,0-3.04,1.37-3.04,3.05s1.37,3.04,3.04,3.04,3.05-1.36,3.05-3.04-1.37-3.05-3.05-3.05Z"/><path d="M15.95,12.98c-1.67,0-3.04,1.37-3.04,3.05s1.37,3.04,3.04,3.04,3.05-1.36,3.05-3.04-1.37-3.05-3.05-3.05Z"/><path d="M15.95,12.98c-1.67,0-3.04,1.37-3.04,3.05s1.37,3.04,3.04,3.04,3.05-1.36,3.05-3.04-1.37-3.05-3.05-3.05Z"/><path d="M15.95,12.98c-1.67,0-3.04,1.37-3.04,3.05s1.37,3.04,3.04,3.04,3.05-1.36,3.05-3.04-1.37-3.05-3.05-3.05Z"/><path d="M15.95,12.98c-1.67,0-3.04,1.37-3.04,3.05s1.37,3.04,3.04,3.04,3.05-1.36,3.05-3.04-1.37-3.05-3.05-3.05Z"/><path d="M15.95,12.98c-1.67,0-3.04,1.37-3.04,3.05s1.37,3.04,3.04,3.04,3.05-1.36,3.05-3.04-1.37-3.05-3.05-3.05Z"/><path d="M15.95,12.98c-1.67,0-3.04,1.37-3.04,3.05s1.37,3.04,3.04,3.04,3.05-1.36,3.05-3.04-1.37-3.05-3.05-3.05Z"/><path d="M15.95,12.98c-1.67,0-3.04,1.37-3.04,3.05s1.37,3.04,3.04,3.04,3.05-1.36,3.05-3.04-1.37-3.05-3.05-3.05Z"/><path d="M15.95,12.98c-1.67,0-3.04,1.37-3.04,3.05s1.37,3.04,3.04,3.04,3.05-1.36,3.05-3.04-1.37-3.05-3.05-3.05Z"/><path d="M15.95,12.98c-1.67,0-3.04,1.37-3.04,3.05s1.37,3.04,3.04,3.04,3.05-1.36,3.05-3.04-1.37-3.05-3.05-3.05Z"/><path d="M15.95,12.98c-1.67,0-3.04,1.37-3.04,3.05s1.37,3.04,3.04,3.04,3.05-1.36,3.05-3.04-1.37-3.05-3.05-3.05Z"/><path d="M15.95,12.98c-1.67,0-3.04,1.37-3.04,3.05s1.37,3.04,3.04,3.04,3.05-1.36,3.05-3.04-1.37-3.05-3.05-3.05Z"/><path d="M15.95,12.98c-1.67,0-3.04,1.37-3.04,3.05s1.37,3.04,3.04,3.04,3.05-1.36,3.05-3.04-1.37-3.05-3.05-3.05Z"/><path d="M15.95,12.98c-1.67,0-3.04,1.37-3.04,3.05s1.37,3.04,3.04,3.04,3.05-1.36,3.05-3.04-1.37-3.05-3.05-3.05Z"/><path d="M15.95,12.98c-1.67,0-3.04,1.37-3.04,3.05s1.37,3.04,3.04,3.04,3.05-1.36,3.05-3.04-1.37-3.05-3.05-3.05Z"/><path d="M19.75,8.63h-7.49c-1.97,0-3.59,1.61-3.59,3.6v7.54c0,1.98,1.62,3.6,3.59,3.6h7.49c1.98,0,3.58-1.62,3.58-3.6v-7.54c0-1.99-1.6-3.6-3.58-3.6Zm-3.8,11.94c-2.51,0-4.54-2.03-4.54-4.54s2.03-4.55,4.54-4.55,4.55,2.04,4.55,4.55-2.04,4.54-4.55,4.54Zm4.76-8.21c-.61,0-1.1-.49-1.1-1.09s.49-1.09,1.1-1.09,1.09,.49,1.09,1.09-.49,1.09-1.09,1.09Z"/><path d="M15.95,12.98c-1.67,0-3.04,1.37-3.04,3.05s1.37,3.04,3.04,3.04,3.05-1.36,3.05-3.04-1.37-3.05-3.05-3.05Z"/><path d="M15.95,12.98c-1.67,0-3.04,1.37-3.04,3.05s1.37,3.04,3.04,3.04,3.05-1.36,3.05-3.04-1.37-3.05-3.05-3.05Z"/><path d="M15.95,12.98c-1.67,0-3.04,1.37-3.04,3.05s1.37,3.04,3.04,3.04,3.05-1.36,3.05-3.04-1.37-3.05-3.05-3.05Z"/><path d="M15.95,12.98c-1.67,0-3.04,1.37-3.04,3.05s1.37,3.04,3.04,3.04,3.05-1.36,3.05-3.04-1.37-3.05-3.05-3.05Z"/><path d="M15.95,12.98c-1.67,0-3.04,1.37-3.04,3.05s1.37,3.04,3.04,3.04,3.05-1.36,3.05-3.04-1.37-3.05-3.05-3.05Z"/></svg>