<?xml version="1.0" encoding="UTF-8"?><svg id="a" xmlns="http://www.w3.org/2000/svg" viewBox="0 0 32 32"><path d="M15.24,26.21c-3.55,0-6.9-1.77-8.89-4.88-.29-.45-.27-1.03,.04-1.46,.31-.43,.85-.62,1.36-.49,1.42,.37,2.88,.37,4.34-.01,3.9-1.01,6.58-4.67,6.38-8.7-.05-1.07-.3-2.11-.73-3.07-.21-.48-.11-1.04,.26-1.42,.38-.38,.94-.49,1.43-.28h0c3.73,1.59,6.18,5.11,6.41,9.18,.27,4.84-2.91,9.34-7.56,10.69-1.01,.29-2.03,.44-3.04,.44Zm-6.11-4.59c2.19,2.25,5.45,3.14,8.59,2.23,3.77-1.1,6.34-4.74,6.13-8.66-.15-2.71-1.51-5.11-3.66-6.6,.16,.65,.25,1.31,.29,1.98,.25,4.97-3.06,9.49-7.88,10.74-1.14,.29-2.31,.4-3.46,.32ZM19.57,6.79h0Z"/></svg>