<?xml version="1.0" encoding="UTF-8"?><svg id="a" xmlns="http://www.w3.org/2000/svg" viewBox="0 0 32 32"><path d="M22.09,4H9.91c-3.26,0-5.91,2.65-5.91,5.91v12.18c0,3.26,2.65,5.91,5.91,5.91h12.18c3.26,0,5.91-2.65,5.91-5.91V9.91c0-3.26-2.65-5.91-5.91-5.91Zm1.18,12.15c-1.25,5.77-8.4,4.5-8.48,3.35,0,0-.85,3.25-1.28,4.22-.43,.96-1.3,2.03-1.63,1.96-.33-.06-.49-2.19-.22-3.57,.26-1.38,1.46-5.87,1.51-6.28,.04-.42-1.54-4.39,1.89-4.74,2.78-.15,.5,5.48,.5,5.48,0,0-.83,2.08,1.47,2.38,5.53-.42,5.16-9.15,.54-10.15-8.02-1.41-7.35,7.06-5.94,7.94,0,0-.29,1.46-.5,1.73-.25,.08-4.36-2.64-1.89-8.01,2.47-5.37,7.99-4.15,9.32-3.73s6.2,2.91,4.71,9.42Z"/></svg>