<?xml version="1.0" encoding="UTF-8"?><svg id="a" xmlns="http://www.w3.org/2000/svg" viewBox="0 0 32 32"><path d="M27.16,13.96L16.36,3.21v5.79c-1.55,.19-5.71,.97-8.58,3.95-2.89,3.03-2.79,7.9-1.78,11.05,.7,2.17,3,5,3,5,0,0-1.5-2.83-1.39-4.67,.15-2.62,2.03-4.23,3.36-4.8,3.11-1.38,4.72-.95,5.39-.6v5.41l10.8-10.38Zm-12.45,2.62c-1.34,0-2.88,.38-4.55,1.12-1.13,.49-2.39,1.43-3.29,2.78,.15-2.23,.92-4.64,2.36-6.15,2.47-2.57,6.27-3.21,7.37-3.34l1.76-.22v-2.75l5.94,5.92-5.94,5.71v-1.94l-1.08-.56c-.74-.38-1.6-.57-2.57-.57Z"/></svg>