<?xml version="1.0" encoding="UTF-8"?><svg id="a" xmlns="http://www.w3.org/2000/svg" viewBox="0 0 32 32"><path d="M22.09,4H9.91c-3.26,0-5.91,2.65-5.91,5.91v12.18c0,3.26,2.65,5.91,5.91,5.91h12.18c3.26,0,5.91-2.65,5.91-5.91V9.91c0-3.26-2.65-5.91-5.91-5.91Zm-.91,16.62c-.19,.05-.1,.34-.46,.7-.23,.23-1.24,.24-1.68,.24-.5,0-1.43,1.11-3.01,1.11s-2.14-.82-2.67-.96c-.52-.14-1.01-.18-1.52-.18-.65,0-.76-.56-1.03-.83-.29-.3-1.59-.43-1.59-1.29,0-1.21,1.81-.83,2.55-2.74,.17-.44-1.38-.51-1.38-1.91,0-1.22,1.61-1.01,1.61-1.01,0,0-.35-4.42,4-4.42s3.98,4.42,3.98,4.42c0,0,1.58-.3,1.58,1.15,0,1.24-1.47,1.31-1.35,1.75,.48,1.74,2.57,1.8,2.57,2.58,0,.92-1.24,1.3-1.6,1.39Z"/></svg>