<?xml version="1.0" encoding="UTF-8"?><svg id="a" xmlns="http://www.w3.org/2000/svg" viewBox="0 0 32 32"><path d="M29.07,13.7c.43-.42,.19-1.16-.41-1.25l-7.51-1.09c-.49-.07-.91-.37-1.13-.82l-3.36-6.81c-.27-.54-1.05-.54-1.32,0l-3.36,6.81c-.22,.45-.64,.75-1.13,.82l-7.51,1.09c-.6,.09-.84,.83-.41,1.25l5.44,5.31c.35,.34,.51,.84,.43,1.32l-1.28,7.49c-.11,.6,.52,1.05,1.06,.77l6.72-3.53c.44-.23,.96-.23,1.4,0l6.72,3.53c.54,.28,1.17-.17,1.06-.77l-1.28-7.49c-.08-.48,.08-.98,.43-1.32l5.44-5.31Zm-6.84,3.87c-.82,.81-1.2,1.97-1,3.1l.85,4.95-4.45-2.33c-.5-.27-1.06-.41-1.63-.41s-1.13,.14-1.63,.41l-4.45,2.33,.85-4.95c.2-1.13-.18-2.29-1-3.1l-3.6-3.51,4.97-.72c1.14-.16,2.13-.88,2.64-1.91l2.22-4.51,2.22,4.51c.51,1.03,1.5,1.75,2.64,1.91l4.97,.72-3.6,3.51Z"/></svg>