<?xml version="1.0" encoding="UTF-8"?><svg id="a" xmlns="http://www.w3.org/2000/svg" viewBox="0 0 32 32"><path d="M16,22.01c-3.32,0-6.01-2.7-6.01-6.01s2.7-6.01,6.01-6.01,6.01,2.7,6.01,6.01-2.7,6.01-6.01,6.01Zm0-10.03c-2.21,0-4.01,1.8-4.01,4.01s1.8,4.01,4.01,4.01,4.01-1.8,4.01-4.01-1.8-4.01-4.01-4.01Z"/><path d="M7.52,17h-2.52c-.55,0-1-.45-1-1s.45-1,1-1h2.52c.55,0,1,.45,1,1s-.45,1-1,1Z"/><path d="M27,17h-2.52c-.55,0-1-.45-1-1s.45-1,1-1h2.52c.55,0,1,.45,1,1s-.45,1-1,1Z"/><path d="M10,11c-.26,0-.51-.1-.71-.29l-1.78-1.78c-.39-.39-.39-1.02,0-1.41s1.02-.39,1.41,0l1.78,1.78c.39,.39,.39,1.02,0,1.41-.2,.2-.45,.29-.71,.29Z"/><path d="M23.78,24.78c-.26,0-.51-.1-.71-.29l-1.78-1.78c-.39-.39-.39-1.02,0-1.41s1.02-.39,1.41,0l1.78,1.78c.39,.39,.39,1.02,0,1.41-.2,.2-.45,.29-.71,.29Z"/><path d="M16,8.52c-.55,0-1-.45-1-1v-2.52c0-.55,.45-1,1-1s1,.45,1,1v2.52c0,.55-.45,1-1,1Z"/><path d="M16,28c-.55,0-1-.45-1-1v-2.52c0-.55,.45-1,1-1s1,.45,1,1v2.52c0,.55-.45,1-1,1Z"/><path d="M22,11c-.26,0-.51-.1-.71-.29-.39-.39-.39-1.02,0-1.41l1.78-1.78c.39-.39,1.02-.39,1.41,0s.39,1.02,0,1.41l-1.78,1.78c-.2,.2-.45,.29-.71,.29Z"/><path d="M8.22,24.78c-.26,0-.51-.1-.71-.29-.39-.39-.39-1.02,0-1.41l1.78-1.78c.39-.39,1.02-.39,1.41,0s.39,1.02,0,1.41l-1.78,1.78c-.2,.2-.45,.29-.71,.29Z"/></svg>