<?xml version="1.0" encoding="UTF-8"?><svg id="a" xmlns="http://www.w3.org/2000/svg" viewBox="0 0 32 32"><path d="M26.86,15.4l-11.54,11.54c-1.03,1.03-2.71,1.03-3.74,0l-6.51-6.51c-1.03-1.03-1.03-2.71,0-3.74L16.6,5.14c.56-.56,1.33-.87,2.12-.85l5.94,.13c.77,.02,1.5,.33,2.04,.87s.86,1.27,.87,2.04l.13,5.93c.02,.79-.29,1.56-.85,2.12Zm-20.38,2.7c-.25,.25-.25,.66,0,.91l6.51,6.51c.25,.25,.66,.25,.91,0l11.54-11.54c.17-.17,.27-.42,.27-.66l-.13-5.93c0-.26-.11-.49-.29-.67s-.42-.28-.67-.29l-5.93-.13c-.25,0-.49,.09-.66,.27L6.48,18.1Z"/><path d="M22.82,12.01c-.78,.78-2.05,.78-2.83,0s-.78-2.05,0-2.83,2.05-.78,2.83,0,.78,2.05,0,2.83Zm-2.12-2.12c-.39,.39-.39,1.02,0,1.41s1.02,.39,1.41,0,.39-1.02,0-1.41-1.02-.39-1.41,0Z"/></svg>