<?xml version="1.0" encoding="UTF-8"?><svg id="a" xmlns="http://www.w3.org/2000/svg" viewBox="0 0 32 32"><rect x="5.5" y="4" width="4" height="14" rx="2" ry="2"/><path d="M26.5,16.86V7.14c0-1.73-1.41-3.14-3.14-3.14H11.96c-.81,0-1.46,.65-1.46,1.46v14.54l3.37,7.26c.21,.45,.66,.74,1.16,.74,.73,0,1.29-.59,1.29-1.29,0-.05,0-.1-.01-.15l-.63-5.07c-.09-.79,.52-1.49,1.32-1.49h6.36c1.73,0,3.14-1.41,3.14-3.14Zm-2,0c0,.63-.51,1.14-1.14,1.14h-6.36c-.95,0-1.86,.41-2.49,1.12-.63,.72-.93,1.67-.81,2.61l.07,.56-1.27-2.73V6h10.86c.63,0,1.14,.51,1.14,1.14v9.72Z"/></svg>