<?xml version="1.0" encoding="UTF-8"?><svg id="a" xmlns="http://www.w3.org/2000/svg" viewBox="0 0 32 32"><rect x="5.5" y="13" width="4" height="15" rx="2" ry="2"/><path d="M24.37,28H13.63c-1.45,0-2.63-1.18-2.63-2.63V13.26c0-.28,.05-.56,.14-.83l2.54-7.63c.36-1.08,1.36-1.8,2.5-1.8,.75,0,1.46,.32,1.96,.88,.5,.56,.74,1.3,.65,2.05l-.6,5.38c-.03,.24,.09,.41,.16,.49,.07,.08,.23,.21,.47,.21h5.54c1.45,0,2.63,1.18,2.63,2.63v10.74c0,1.45-1.18,2.63-2.63,2.63ZM16.18,5c-.27,0-.51,.17-.6,.43l-2.54,7.63c-.02,.07-.03,.13-.03,.2v12.1c0,.35,.28,.63,.63,.63h10.74c.35,0,.63-.28,.63-.63V14.63c0-.35-.28-.63-.63-.63h-5.54c-.75,0-1.46-.32-1.96-.88-.5-.56-.74-1.3-.65-2.05l.6-5.38c.03-.24-.09-.41-.16-.49-.07-.08-.23-.21-.47-.21Z"/></svg>