<?xml version="1.0" encoding="UTF-8"?><svg id="a" xmlns="http://www.w3.org/2000/svg" viewBox="0 0 32 32"><rect x="5.5" y="14" width="4" height="14" rx="2" ry="2"/><path d="M23.36,12h-6.36c-.8,0-1.41-.7-1.32-1.49l.63-5.07s.01-.1,.01-.15c0-.7-.56-1.29-1.29-1.29-.5,0-.95,.29-1.16,.74l-3.37,7.26v14.54c0,.81,.65,1.46,1.46,1.46h11.4c1.73,0,3.14-1.41,3.14-3.14V15.14c0-1.73-1.41-3.14-3.14-3.14Zm1.14,12.86c0,.63-.51,1.14-1.14,1.14H12.5V12.44l1.27-2.73-.07,.56c-.12,.94,.18,1.89,.81,2.61,.63,.71,1.54,1.12,2.49,1.12h6.36c.63,0,1.14,.51,1.14,1.14v9.72Z"/></svg>