<?xml version="1.0" encoding="UTF-8"?><svg id="a" xmlns="http://www.w3.org/2000/svg" viewBox="0 0 32 32"><rect x="22.75" y="3.5" width="4" height="15" rx="2" ry="2" transform="translate(49.5 22) rotate(-180)"/><path d="M7.88,3.5h10.74c1.45,0,2.63,1.18,2.63,2.63v12.1c0,.28-.05,.56-.14,.83l-2.54,7.63c-.36,1.08-1.36,1.8-2.5,1.8-.75,0-1.46-.32-1.96-.88-.5-.56-.74-1.3-.65-2.05l.6-5.37c.03-.24-.09-.41-.16-.49-.07-.08-.23-.21-.47-.21H7.88c-1.45,0-2.63-1.18-2.63-2.63V6.13c0-1.45,1.18-2.63,2.63-2.63Zm8.19,23c.27,0,.51-.17,.6-.43l2.54-7.63c.02-.07,.03-.13,.03-.2V6.13c0-.35-.28-.63-.63-.63H7.88c-.35,0-.63,.28-.63,.63v10.74c0,.35,.28,.63,.63,.63h5.54c.75,0,1.46,.32,1.96,.88,.5,.56,.74,1.3,.65,2.05l-.6,5.37c-.03,.24,.09,.41,.16,.49,.07,.08,.23,.21,.47,.21Z"/></svg>