<?xml version="1.0" encoding="UTF-8"?><svg id="a" xmlns="http://www.w3.org/2000/svg" viewBox="0 0 32 32"><path d="M22.09,4H9.91c-3.26,0-5.91,2.65-5.91,5.91v12.18c0,3.26,2.65,5.91,5.91,5.91h12.18c3.26,0,5.91-2.65,5.91-5.91V9.91c0-3.26-2.65-5.91-5.91-5.91Zm-2.5,8.99v6.34c0,3.26-2.27,5.84-5.76,5.84-1.08,0-5.8-.81-5.8-5.8,0-.67,.25-5.93,6.53-5.76l.02,3.22c-3.18-.62-3.41,2.08-3.41,2.47s.04,2.64,2.66,2.64,2.62-2.32,2.62-2.7,.02-12.41,.02-12.41l3.12,.03s-.05,3.96,4.36,4.42l.02,3.1c-2.74-.04-4.38-1.39-4.38-1.39Z"/></svg>