<?xml version="1.0" encoding="UTF-8"?><svg id="a" xmlns="http://www.w3.org/2000/svg" viewBox="0 0 32 32"><path d="M23.02,6.51l-.54-.33c-4.17-2.54-8.79-2.54-12.96,0l-.54,.33c-.59,.36-.98,1.25-.98,2.24V25.63c0,1.31,1.06,2.37,2.37,2.37h11.26c1.31,0,2.37-1.06,2.37-2.37V8.75c0-.99-.39-1.88-.98-2.24Zm-1.02,19.12c0,.2-.17,.37-.37,.37H10.37c-.2,0-.37-.17-.37-.37V12h12v13.63ZM10,10v-1.25c0-.3,.08-.5,.12-.59l.45-.27c1.75-1.07,3.58-1.61,5.43-1.61s3.68,.54,5.43,1.61l.45,.27c.04,.09,.12,.29,.12,.59v1.25H10Z"/></svg>