<?xml version="1.0" encoding="UTF-8"?><svg id="a" xmlns="http://www.w3.org/2000/svg" viewBox="0 0 32 32"><path d="M22.09,4H9.91c-3.26,0-5.91,2.65-5.91,5.91v12.18c0,3.26,2.65,5.91,5.91,5.91h12.18c3.26,0,5.91-2.65,5.91-5.91V9.91c0-3.26-2.65-5.91-5.91-5.91Zm.73,8.53c.02,8.16-8.09,13-15.3,8.84,1.08-.03,3.13,.17,5.13-1.5-2.44-.07-3.22-2.38-3.22-2.38,0,0,1.29,.09,1.55-.11-2.83-.68-2.77-3.41-2.77-3.41,0,0,.89,.47,1.55,.39-2.59-1.95-1.05-4.63-1.05-4.63,0,0,2.23,3.28,7.18,3.66-.56-4.25,3.94-5.36,5.93-3.22,1.29-.2,2.19-.83,2.19-.83,0,0-.18,1.12-1.5,1.91,1.02-.05,1.86-.46,1.96-.51-.06,.12-.64,1.09-1.65,1.79Z"/></svg>