<?xml version="1.0" encoding="UTF-8"?><svg id="a" xmlns="http://www.w3.org/2000/svg" viewBox="0 0 32 32"><path d="M16,2c-7.73,0-14,6.27-14,14s6.27,14,14,14,14-6.27,14-14S23.73,2,16,2Zm0,26c-1.95,0-3.8-.47-5.43-1.3,.12-3.71,2.51-6.68,5.43-6.68s5.31,2.97,5.43,6.68c-1.63,.83-3.48,1.3-5.43,1.3Zm7.33-2.5c-.59-4.24-3.65-7.48-7.33-7.48s-6.74,3.24-7.33,7.48c-2.84-2.2-4.67-5.64-4.67-9.5,0-6.62,5.38-12,12-12s12,5.38,12,12c0,3.86-1.83,7.3-4.67,9.5Z"/><path d="M16,17.01c-2.46,0-4.46-2-4.46-4.46s2-4.46,4.46-4.46,4.46,2,4.46,4.46-2,4.46-4.46,4.46Zm0-6.92c-1.36,0-2.46,1.1-2.46,2.46s1.1,2.46,2.46,2.46,2.46-1.1,2.46-2.46-1.1-2.46-2.46-2.46Z"/></svg>