<?xml version="1.0" encoding="UTF-8"?><svg id="a" xmlns="http://www.w3.org/2000/svg" viewBox="0 0 32 32"><rect x="2.75" y="12.5" width="6.5" height="7"/><polygon points="17.75 26.5 9.75 19.52 9.75 12.48 17.75 5.5 17.75 26.5"/><g><path d="M20.51,13.11l-2.04,1.9c.26,.25,.42,.6,.42,.98s-.17,.76-.43,1l2.04,1.9c.72-.75,1.16-1.77,1.16-2.89s-.44-2.13-1.15-2.88Z"/><path d="M23.1,10.67l-2.02,1.91c.86,.87,1.37,2.08,1.37,3.41s-.53,2.55-1.39,3.44l2.02,1.9c1.32-1.4,2.13-3.27,2.13-5.33s-.82-3.92-2.12-5.32Z"/><path d="M25.95,8l-2.01,1.9c1.57,1.57,2.53,3.73,2.53,6.09s-.98,4.56-2.55,6.11l2.01,1.9c2.05-2.05,3.31-4.88,3.31-8.01s-1.26-5.94-3.3-7.99Z"/></g></svg>