<?xml version="1.0" encoding="UTF-8"?><svg id="a" xmlns="http://www.w3.org/2000/svg" viewBox="0 0 32 32"><path d="M17.56,26.23c-.43,0-.85-.13-1.21-.39l-6.44-4.6-4.65-.02c-1.15,0-2.09-.94-2.09-2.09v-6.27c0-1.15,.94-2.09,2.09-2.09h4.59l6.49-4.62c.64-.46,1.47-.51,2.17-.16,.7,.36,1.13,1.07,1.13,1.85V24.14c0,.78-.43,1.5-1.13,1.85-.3,.16-.63,.23-.96,.23ZM5.26,12.78s-.09,.04-.09,.09v6.27s.04,.09,.09,.09h4.59c.44,0,.85,.13,1.21,.39l6.44,4.6,.14-.07V7.86s0-.05-.05-.08l-6.53,4.61c-.36,.25-.78,.39-1.21,.39H5.26Z"/></svg>