<?xml version="1.0" encoding="UTF-8"?><svg id="a" xmlns="http://www.w3.org/2000/svg" viewBox="0 0 32 32"><rect x="2.81" y="12.99" width="6.5" height="7"/><polygon points="17.81 26.99 9.81 20.01 9.81 12.97 17.81 5.99 17.81 26.99"/><path d="M20.57,13.6l-2.04,1.9c.26,.25,.42,.6,.42,.98s-.17,.76-.43,1l2.04,1.9c.72-.75,1.16-1.77,1.16-2.89s-.44-2.13-1.15-2.88Z"/><path d="M23.16,11.16l-2.02,1.91c.86,.87,1.37,2.08,1.37,3.41s-.53,2.55-1.39,3.44l2.02,1.9c1.32-1.4,2.13-3.27,2.13-5.33s-.82-3.92-2.12-5.32Z"/></svg>